<svg width="66" height="20" viewBox="0 0 66 20" fill="none" xmlns="http://www.w3.org/2000/svg">
<g clip-path="url(#clip0_3006_7420)">
<path d="M0.000732422 0H20.0008V10.0586C20.0008 12.6371 18.6252 15.0199 16.3922 16.3093L10.0007 20L3.60933 16.3093C1.3763 15.0199 0.000732422 12.6371 0.000732422 10.0586V0Z" fill="#969696"/>
<path fill-rule="evenodd" clip-rule="evenodd" d="M5.48956 5.29492V8.42335C5.91736 7.94026 6.69517 7.61331 7.5845 7.61331H8.55096V11.2501C8.55096 12.2176 8.28807 13.0645 7.89802 13.5303H12.1019C11.7126 13.064 11.4504 12.2182 11.4504 11.2519V7.61331H12.4168C13.3062 7.61331 14.084 7.94026 14.5118 8.42335V5.29492H5.48956Z" fill="#333333"/>
<path d="M24.7161 13.5294V5.29492H33.0801V7.17693H27.2102V8.35354H30.1157C32.1744 8.35354 33.7037 8.82405 33.7037 10.9413C33.7037 13.0589 32.1744 13.5294 30.1157 13.5294H24.7161ZM27.2102 10.2356V11.6471H30.1274C30.9746 11.6471 31.1744 11.4827 31.1744 10.9413C31.1744 10.4003 30.9746 10.2356 30.1274 10.2356H27.2102Z" fill="#333333"/>
<path d="M47.5108 10.4708V13.5294H45.0167V5.29492H47.5108V8.29473H51.5926V5.29492H54.0867V13.5294H51.5926V10.4708H47.5108Z" fill="#333333"/>
<path d="M58.105 10.4237V13.5294H55.611V5.29492H58.105V8.36524H59.5989L62.1987 5.29492H65.0219L61.7635 9.14149V9.29455L65.1866 13.5294H62.0928L59.5872 10.4237H58.105Z" fill="#333333"/>
<path d="M41.0467 12.3177H37.1528L36.7176 13.5294H34.1061L37.3647 5.29492H40.9643L44.2111 13.5294H41.482L41.0467 12.3177ZM40.3762 10.4357L39.2233 7.18898H39.0115L37.8352 10.4357H40.3762Z" fill="#333333"/>
</g>
<defs>
<clipPath id="clip0_3006_7420">
<rect width="65.1861" height="20" fill="white"/>
</clipPath>
</defs>
</svg>
