<svg width="28" height="20" viewBox="0 0 28 20" fill="none" xmlns="http://www.w3.org/2000/svg">
<path fill-rule="evenodd" clip-rule="evenodd" d="M17.9201 20C23.4871 20 28.0001 15.5228 28.0001 10C28.0001 4.47715 23.4871 0 17.9201 0C12.3531 0 7.84009 4.47715 7.84009 10C7.84009 15.5228 12.3531 20 17.9201 20ZM17.9201 13.8889C20.0851 13.8889 21.8401 12.1478 21.8401 10C21.8401 7.85223 20.0851 6.11111 17.9201 6.11111C15.7551 6.11111 14.0001 7.85223 14.0001 10C14.0001 12.1478 15.7551 13.8889 17.9201 13.8889Z" fill="#9E9E9E"/>
<path d="M7.84 3.33301H0L4.181 16.6664H7.84V3.33301Z" fill="#9E9E9E"/>
</svg>
