<svg width="39" height="12" viewBox="0 0 39 12" fill="none" xmlns="http://www.w3.org/2000/svg">
<path fill-rule="evenodd" clip-rule="evenodd" d="M35.6626 9.89403C35.7575 10.3143 36.0408 11.9856 36.0408 11.9856L36.0433 11.9904H39L36.3996 0.0107422H33.9357C33.547 0.0107422 33.2262 0.0474626 32.9247 0.229783C32.6232 0.412093 32.3949 0.688562 32.2774 1.01356L27.5613 11.9856H30.8962C30.8962 11.9856 31.4616 10.2223 31.575 9.89403H35.6626ZM33.24 5.79732C33.5668 4.96179 33.8937 4.12624 34.1744 3.27661C34.3522 4.07634 34.5215 4.87769 34.6907 5.67903C34.8371 6.37203 34.9835 7.06513 35.1354 7.75713H32.4977C32.7306 7.09943 32.9853 6.44843 33.24 5.79732Z" fill="#989898"/>
<path d="M23.3196 3.52195C23.3393 3.01218 23.9048 2.50241 25.1676 2.50241C26.1096 2.47248 26.9732 2.7147 27.82 3.07783L28.2536 0.490793C27.3372 0.161273 26.3668 -0.004967 25.3893 0.000113001C22.2417 0.000113001 20.0377 1.62734 20.018 3.9398C20.0005 5.56442 21.4398 6.2308 22.6173 6.7759C22.6814 6.8056 22.7448 6.835 22.8071 6.8641C24.0514 7.4467 24.4654 7.8299 24.4654 8.3576C24.356 9.2257 23.4513 9.5071 22.5647 9.5076C21.3731 9.5082 19.9397 9.0593 19.1322 8.6859L18.6998 11.3637C19.8293 11.7875 21.0305 12.0033 22.2417 12C25.6 12 27.767 10.399 27.7855 7.9409C27.804 6.5752 26.9564 5.83321 25.1282 4.99752C23.9984 4.45074 23.3196 4.08783 23.3196 3.52195Z" fill="#989898"/>
<path d="M15.5201 0.0478516L13.5219 11.9862H16.7076L18.7047 0.0478516H15.5201Z" fill="#989898"/>
<path d="M3.0276 1.68675L5.853 11.9864H9.2261L14.2389 0.0481129H10.8658L7.7403 8.17694C7.2404 5.76692 6.7331 3.35851 6.2217 0.950613C6.1603 0.683613 6.001 0.444043 5.7705 0.271913C5.54 0.099793 5.2522 0.00554281 4.9551 0.00488281H0V0.360253C1.014 0.635743 2.0698 1.0283 2.981 1.52104L3.0276 1.68675Z" fill="#989898"/>
</svg>
