<svg xmlns="http://www.w3.org/2000/svg">
  <symbol viewBox="0 0 16 14" id="three-lines-icon">
    <path d="M1.00098 1H15.001" stroke="currentColor" stroke-width="2" stroke-linecap="round"/>
    <path d="M1.00098 7H15.001" stroke="currentColor" stroke-width="2" stroke-linecap="round"/>
    <path d="M1.00098 13H15.001" stroke="currentColor" stroke-width="2" stroke-linecap="round"/>
  </symbol>
  <symbol viewBox="0 0 10 11" id="arrow-down-icon">
    <path d="M4.84812 10.8129L0.000117242 5.18087L1.12012 4.22087L4.12812 7.91687V-0.00312519H5.56812V7.91687L8.57612 4.22087L9.68012 5.18087L4.84812 10.8129Z" fill="currentColor"/>
  </symbol>
  <symbol viewBox="0 0 28 24" id="basket-icon">
    <path d="M1.05125 0.000104082C0.677452 -0.00518198 0.329775 0.191211 0.141332 0.514064C-0.0471107 0.836928 -0.0471107 1.23624 0.141332 1.5591C0.329775 1.88196 0.677452 2.07834 1.05125 2.07306H2.99871C3.23285 2.07306 3.42822 2.21968 3.49468 2.44555L6.8754 15.3894C7.26307 16.7075 8.48222 17.6203 9.8573 17.6203H23.3073C24.7049 17.6203 25.9389 16.6757 26.3074 15.3287L27.9633 7.52876C28.0485 7.217 27.9834 6.88337 27.7873 6.62651C27.5912 6.36965 27.2865 6.21895 26.9633 6.21898H6.76608L5.48464 1.8605H5.48262C5.15936 0.761732 4.14309 9.37028e-05 2.99872 9.37028e-05L1.05125 0.000104082ZM11.4161 19.6568C10.2712 19.6568 9.34311 20.5849 9.34311 21.7297C9.34311 22.8746 10.2712 23.8027 11.4161 23.8027C12.5609 23.8027 13.489 22.8746 13.489 21.7297C13.489 20.5849 12.5609 19.6568 11.4161 19.6568ZM21.7809 19.6568C20.636 19.6568 19.7079 20.5849 19.7079 21.7297C19.7079 22.8746 20.636 23.8027 21.7809 23.8027C22.9258 23.8027 23.8539 22.8746 23.8539 21.7297C23.8539 20.5849 22.9258 19.6568 21.7809 19.6568Z" fill="currentColor"/>
  </symbol>
  <symbol viewBox="0 0 20 20" id="close-icon">
    <path d="M2.72746 0.000255725C2.49485 0.000255725 2.26199 0.0888614 2.08472 0.266584L0.266584 2.08472C-0.0888614 2.44017 -0.0888614 3.01566 0.266584 3.3702L6.89639 10L0.266584 16.6298C-0.0888614 16.9852 -0.0888614 17.5607 0.266584 17.9153L2.08472 19.7334C2.44017 20.0889 3.01566 20.0889 3.3702 19.7334L10 13.1036L16.6298 19.7334C16.9843 20.0889 17.5607 20.0889 17.9153 19.7334L19.7334 17.9153C20.0889 17.5598 20.0889 16.9843 19.7334 16.6298L13.1036 10L19.7334 3.3702C20.0889 3.01566 20.0889 2.43926 19.7334 2.08472L17.9153 0.266584C17.5598 -0.0888614 16.9843 -0.0888614 16.6298 0.266584L10 6.89639L3.3702 0.266584C3.19248 0.0888614 2.96007 0.000255725 2.72746 0.000255725Z" fill="currentColor"/>
  </symbol>
  <symbol viewBox="0 0 12 14" id="trash-icon">
    <path fill-rule="evenodd" clip-rule="evenodd" d="M3.81818 1.12C3.81818 0.50148 4.30664 0 4.90909 0H7.09091C7.69336 0 8.18182 0.50148 8.18182 1.12V1.68H8.29102L12 2.24V3.08H0V2.24L3.70898 1.68H3.81818V1.12ZM7.09091 1.12H4.90909V1.68H7.09091V1.12ZM1.28214 12.9702L0.545455 4.2H11.4338L10.7179 12.9708C10.6718 13.5523 10.199 14 9.63068 14H2.36985C1.80149 14 1.32796 13.5518 1.28214 12.9702ZM3.84129 6.23464C3.88963 6.18488 3.95314 6.16007 4.01658 6.16007C4.08002 6.16007 4.1434 6.18488 4.19187 6.23464L6 8.09099L7.80813 6.23464C7.90482 6.13512 8.06177 6.13512 8.15871 6.23464L8.65457 6.74372C8.75151 6.84299 8.75151 7.00438 8.65457 7.10366L6.84644 8.96L8.65457 10.8163C8.75151 10.9156 8.75151 11.0768 8.65457 11.1763L8.15871 11.6854C8.06202 11.7849 7.90482 11.7849 7.80813 11.6854L6 9.82901L4.19187 11.6854C4.09518 11.7849 3.93823 11.7849 3.84129 11.6854L3.34543 11.1763C3.24849 11.077 3.24849 10.9159 3.34543 10.8163L5.15356 8.96L3.34543 7.10366C3.24849 7.00438 3.24849 6.84325 3.34543 6.74372L3.84129 6.23464Z" fill="currentColor"/>
  </symbol>
  <symbol viewBox="0 0 150 30" id="konan-logo">
    <path d="M0.160156 29.3539V0.369629H7.56996V11.5048H11.541L17.8045 0.369629H26.2378L17.6408 14.2477L26.1559 29.3539H17.5589L11.7047 18.3415H7.56996V29.3539H0.160156Z" fill="currentColor"/>
    <path d="M60.9677 29.3539V0.369629H67.8863L80.1268 16.9496V0.369629H87.5366V29.3539H80.8227L68.3775 13.0195V29.3539H60.9677Z" fill="currentColor"/>
    <path d="M90.0831 29.3539L101.71 0.369629H109.242L120.746 29.3539H112.763L111.33 25.26H99.4989L98.0251 29.3539H90.0831ZM101.832 18.5871H108.997L105.476 8.63914L101.832 18.5871Z" fill="currentColor"/>
    <path d="M123.294 29.3539V0.369629H130.213L142.454 16.9496V0.369629H149.863V29.3539H143.15L130.704 13.0195V29.3539H123.294Z" fill="currentColor"/>
    <path d="M37.8998 14.9732C37.8998 16.4812 38.3023 17.6196 39.1074 18.3884C39.9108 19.1556 40.8745 19.54 41.9986 19.5416H42.0527C43.1768 19.54 44.1405 19.1556 44.9439 18.3884C45.7489 17.6196 46.1514 16.4812 46.1514 14.9732V14.707C46.1514 13.199 45.7489 12.0606 44.9439 11.2918C44.117 10.5276 43.1442 10.1432 42.0256 10.1386C40.9071 10.1432 39.9343 10.5276 39.1074 11.2918C38.3023 12.0606 37.8998 13.199 37.8998 14.707V14.9732Z" fill="currentColor"/>
    <path d="M42.087 0C45.0073 0 47.5728 0.600426 49.7834 1.80128C51.9941 3.00213 53.7271 4.70789 54.9826 6.91855C56.238 9.10192 56.8657 11.6947 56.8657 14.6968V15.0473C56.8657 18.0495 56.238 20.6422 54.9826 22.8256C53.7271 25.0362 51.9941 26.742 49.7834 27.9429C49.5941 28.0457 49.4021 28.1442 49.2075 28.2382L46.4481 21.3592C46.4777 21.336 46.5071 21.3126 46.5361 21.289C46.9202 20.9768 47.256 20.6266 47.5434 20.2384C47.9192 19.7637 48.2266 19.2455 48.4657 18.6838L48.4664 18.6824C48.6365 18.3025 48.7753 17.9096 48.8828 17.5036C49.1557 16.603 49.2922 15.716 49.2922 14.8426C49.2922 13.6691 49.0465 12.4819 48.5553 11.281C48.0913 10.0802 47.3297 9.06593 46.2653 8.24716C46.0105 8.06227 45.7368 7.89232 45.444 7.73731C44.5207 7.24851 43.3812 7.00289 42.0256 7.00044C40.67 7.00289 39.5306 7.24851 38.6073 7.73731C38.3145 7.89232 38.0407 8.06227 37.786 8.24716C36.7216 9.06593 35.96 10.0802 35.496 11.281C35.0047 12.4819 34.7591 13.6691 34.7591 14.8426C34.7591 15.716 34.8956 16.603 35.1685 17.5036C35.2761 17.9101 35.4151 18.3035 35.5856 18.6838C35.8246 19.2455 36.1321 19.7637 36.5079 20.2384C36.7911 20.6209 37.1212 20.9665 37.4983 21.2752L37.5152 21.289C37.5442 21.3126 37.5735 21.336 37.6032 21.3592L34.8438 28.2382C34.6492 28.1442 34.4572 28.0457 34.2678 27.9429C32.0572 26.742 30.3241 25.0362 29.0687 22.8256C27.8133 20.6422 27.1855 18.0495 27.1855 15.0473V14.6968C27.1855 11.6947 27.8133 9.10192 29.0687 6.91855C30.3241 4.70789 32.0572 3.00213 34.2678 1.80128C36.4785 0.600426 39.044 0 41.9642 0H42.087Z" fill="currentColor"/>
  </symbol>
  <symbol viewBox="0 0 34 34" id="vk-icon">
    <path d="M29.721 24.9347L25.9846 24.9867C25.9846 24.9867 25.1785 25.1447 24.1244 24.4166C22.7263 23.4565 21.4082 20.9583 20.3801 21.2823C19.338 21.6143 19.37 23.8626 19.37 23.8626C19.37 23.8626 19.378 24.2586 19.1399 24.5166C18.8819 24.7946 18.3759 24.7666 18.3759 24.7666H16.7017C16.7017 24.7666 13.0093 25.0727 9.755 21.6803C6.21065 17.982 3.07834 10.6832 3.07834 10.6832C3.07834 10.6832 2.89432 10.2232 3.09034 9.98718C3.31237 9.72715 3.91042 9.71915 3.91042 9.71915L7.91082 9.69915C7.91082 9.69915 8.28686 9.76516 8.55889 9.96518C8.78091 10.1292 8.90692 10.4372 8.90692 10.4372C8.90692 10.4372 9.55298 12.0754 10.4111 13.5595C12.0832 16.4518 12.8593 17.0859 13.4274 16.7759C14.2554 16.3238 14.0074 12.6874 14.0074 12.6874C14.0074 12.6874 14.0234 11.3673 13.5914 10.7793C13.2553 10.3212 12.6233 10.1852 12.3473 10.1512C12.1212 10.1212 12.4893 9.59714 12.9693 9.36112C13.6894 9.00908 14.9615 8.98908 16.4637 9.00308C17.6338 9.01508 17.9718 9.08709 18.4279 9.1991C19.808 9.53314 19.34 10.8213 19.34 13.9116C19.34 14.9017 19.1619 16.2938 19.874 16.7518C20.182 16.9499 20.9321 16.7819 22.8023 13.5935C23.6924 12.0814 24.3584 10.3052 24.3584 10.3052C24.3584 10.3052 24.5045 9.98918 24.7305 9.85317C24.9625 9.71315 25.2745 9.75716 25.2745 9.75716L29.485 9.73115C29.485 9.73115 30.7491 9.57914 30.9551 10.1532C31.1711 10.7533 30.4831 12.1554 28.7629 14.4496C25.9386 18.218 25.6246 17.868 27.9708 20.0482C30.211 22.1304 30.6731 23.1425 30.7511 23.2705C31.6772 24.8126 29.721 24.9347 29.721 24.9347Z" fill="currentColor"/>
  </symbol>
  <symbol viewBox="0 0 34 34" id="whatsapp-icon">
    <path d="M16.9999 3.40039C9.4893 3.40039 3.3999 9.48979 3.3999 17.0004C3.3999 19.5518 4.11655 21.9305 5.33897 23.9708L3.52164 30.6004L10.2929 28.8229C12.2732 29.9488 14.5593 30.6004 16.9999 30.6004C24.5105 30.6004 30.5999 24.511 30.5999 17.0004C30.5999 9.48979 24.5105 3.40039 16.9999 3.40039ZM12.3448 10.6564C12.5658 10.6564 12.7929 10.655 12.989 10.6652C13.2315 10.6709 13.4955 10.6887 13.7482 11.2474C14.0485 11.9115 14.7025 13.5776 14.7864 13.7465C14.8702 13.9153 14.9297 14.1143 14.8129 14.3353C14.7019 14.5619 14.6441 14.6991 14.4809 14.8997C14.312 15.0947 14.127 15.3368 13.974 15.4841C13.8051 15.653 13.6307 15.8381 13.8257 16.1747C14.0206 16.5113 14.6976 17.6148 15.6983 18.5056C16.9847 19.6548 18.07 20.008 18.4077 20.1768C18.7454 20.3457 18.941 20.3194 19.136 20.0927C19.3366 19.8717 19.9784 19.1134 20.2051 18.7757C20.4261 18.4379 20.6517 18.4964 20.9577 18.6074C21.2682 18.7185 22.9243 19.5343 23.262 19.7031C23.5997 19.872 23.8211 19.9556 23.9061 20.0927C23.9934 20.2344 23.9935 20.9088 23.7136 21.6953C23.4336 22.4807 22.059 23.2402 21.4425 23.2935C20.8203 23.3513 20.2396 23.5732 17.3983 22.4546C13.9711 21.1048 11.8098 17.5945 11.6409 17.3678C11.472 17.1468 10.2685 15.5428 10.2685 13.8882C10.2685 12.2278 11.139 11.4147 11.4439 11.077C11.7544 10.7392 12.1182 10.6564 12.3448 10.6564Z" fill="currentColor"/>
  </symbol>
  <symbol viewBox="0 0 34 34" id="tg-icon">
    <path d="M28.8442 4.00219C28.465 4.01892 28.1117 4.12937 27.8007 4.2551C27.5093 4.3723 26.3962 4.84974 24.6428 5.60166C22.8879 6.35423 20.5642 7.35185 18.0855 8.41779C13.128 10.5497 7.55448 12.9494 4.69971 14.1777C4.59236 14.2238 4.21779 14.3435 3.82023 14.6538C3.42267 14.9642 3 15.6073 3 16.3239C3 16.9018 3.27539 17.4758 3.62201 17.8186C3.96864 18.1613 4.3354 18.3306 4.64958 18.4588C5.7895 18.9239 9.32488 20.3707 9.9925 20.6438C10.2275 21.3636 11.5071 25.278 11.8038 26.2374C11.9995 26.8705 12.1857 27.267 12.4281 27.5816C12.5494 27.739 12.6903 27.8769 12.861 27.9849C12.9293 28.0281 13.0041 28.0614 13.0798 28.092L13.0843 28.0943C13.1017 28.1013 13.1168 28.1132 13.1344 28.1193C13.1678 28.131 13.1901 28.1324 13.2347 28.1421C13.4124 28.1995 13.5918 28.2355 13.7519 28.2355C14.4345 28.2355 14.8524 27.8596 14.8524 27.8596L14.8775 27.8414L18.3885 24.8042L22.6469 28.8325C22.7069 28.9173 23.266 29.6846 24.4993 29.6846C25.2315 29.6846 25.8124 29.3172 26.1853 28.9259C26.5582 28.5346 26.7906 28.1236 26.8893 27.6067V27.6044C26.9817 27.116 30.9062 6.96871 30.9062 6.96871L30.8994 6.99605C31.0143 6.47168 31.0444 5.98332 30.9176 5.50141C30.7908 5.01949 30.4568 4.55808 30.0427 4.30979C29.6286 4.06155 29.2234 3.98547 28.8442 4.00219ZM28.6255 6.44011C28.6199 6.47416 28.6297 6.45704 28.6209 6.49707L28.6186 6.51074L28.6164 6.52442C28.6164 6.52442 24.7405 26.4141 24.5972 27.1715C24.6077 27.1143 24.5598 27.2281 24.5106 27.2968C24.4412 27.249 24.2987 27.1875 24.2987 27.1875L24.276 27.1624L18.4591 21.66L14.3466 25.2144L15.5701 20.3157C15.5701 20.3157 23.2182 12.3988 23.679 11.938C24.05 11.5693 24.1279 11.4408 24.1279 11.3137C24.1279 11.1434 24.0391 11.0198 23.8408 11.0198C23.6623 11.0198 23.4223 11.1933 23.294 11.2749C21.6222 12.3406 14.2827 16.6182 10.9927 18.5317C10.4699 18.3178 6.83758 16.8309 5.60653 16.3285C5.61585 16.3244 5.61278 16.3259 5.62247 16.3217C8.47799 15.0931 14.0492 12.6934 19.006 10.5618C21.4844 9.49601 23.8098 8.49762 25.5633 7.74566C27.2898 7.00528 28.4894 6.49572 28.6255 6.44011Z" fill="currentColor"/>
  </symbol>
  <symbol viewBox="0 0 32 32" id="phone-lock-icon">
    <path d="M8.53332 1.06641C7.9675 1.06641 7.42486 1.29118 7.02477 1.69127C6.62467 2.09136 6.3999 2.63401 6.3999 3.19982L6.3999 24.636H8.53332L8.53332 3.19982L11.7334 3.19982L12.1751 3.64144C12.5751 4.04156 13.1176 4.26641 13.6834 4.26653H18.3172C18.8829 4.26641 19.4255 4.04156 19.8255 3.64144L20.2671 3.19982L23.4672 3.19982L23.4672 28.8008L8.53332 28.8008V24.534H6.3999L6.3999 28.8008C6.3999 29.3666 6.62467 29.9093 7.02477 30.3094C7.42486 30.7095 7.9675 30.9342 8.53332 30.9342L23.4672 30.9342C24.033 30.9342 24.5757 30.7095 24.9758 30.3094C25.3759 29.9093 25.6006 29.3666 25.6006 28.8008L25.6006 3.19982C25.6006 2.63401 25.3759 2.09136 24.9758 1.69127C24.5757 1.29118 24.033 1.06641 23.4672 1.06641L8.53332 1.06641ZM14.4002 2.13311L16.5336 2.13311C16.6751 2.13311 16.8107 2.18931 16.9108 2.28933C17.0108 2.38935 17.067 2.52501 17.067 2.66647C17.067 2.80792 17.0108 2.94358 16.9108 3.04361C16.8107 3.14363 16.6751 3.19982 16.5336 3.19982L14.4002 3.19982C14.2588 3.19982 14.1231 3.14363 14.0231 3.04361C13.923 2.94358 13.8669 2.80792 13.8669 2.66647C13.8669 2.52501 13.923 2.38935 14.0231 2.28933C14.1231 2.18931 14.2588 2.13311 14.4002 2.13311ZM18.667 2.13311C18.8085 2.13311 18.9442 2.18931 19.0442 2.28933C19.1442 2.38935 19.2004 2.52501 19.2004 2.66647C19.2004 2.80792 19.1442 2.94358 19.0442 3.04361C18.9442 3.14363 18.8085 3.19982 18.667 3.19982C18.5256 3.19982 18.3899 3.14363 18.2899 3.04361C18.1899 2.94358 18.1337 2.80792 18.1337 2.66647C18.1337 2.52501 18.1899 2.38935 18.2899 2.28933C18.3899 2.18931 18.5256 2.13311 18.667 2.13311ZM15.9696 10.6668C13.6164 10.6668 11.7028 12.5805 11.7028 14.9336V16.0003C11.4199 16.0003 11.1485 16.1127 10.9485 16.3128C10.7484 16.5128 10.6361 16.7841 10.6361 17.067V21.3339C10.6361 21.6168 10.7484 21.8881 10.9485 22.0881C11.1485 22.2882 11.4199 22.4006 11.7028 22.4006L20.2364 22.4006C20.5193 22.4006 20.7907 22.2882 20.9907 22.0881C21.1907 21.8881 21.3031 21.6168 21.3031 21.3339L21.3031 17.067C21.3031 16.7841 21.1907 16.5128 20.9907 16.3128C20.7907 16.1127 20.5193 16.0003 20.2364 16.0003V14.9336C20.2364 12.5805 18.3227 10.6668 15.9696 10.6668ZM15.9696 12.8002C17.1462 12.8002 18.103 13.757 18.103 14.9336V16.0003H13.8362V14.9336C13.8362 13.757 14.793 12.8002 15.9696 12.8002Z" fill="currentColor"/>
  </symbol>
  <symbol viewBox="0 0 32 32" id="face-id-icon">
    <path d="M6.40043 3.2002C4.64569 3.2002 3.2003 4.64558 3.2003 6.40032L3.2003 9.60044C3.2003 9.88335 3.31269 10.1547 3.51273 10.3547C3.71278 10.5548 3.9841 10.6671 4.26701 10.6671C4.54992 10.6671 4.82124 10.5548 5.02129 10.3547C5.22133 10.1547 5.33372 9.88335 5.33372 9.60044L5.33372 6.40032C5.33372 5.79763 5.79774 5.33361 6.40043 5.33361L9.60055 5.33361C9.88346 5.33361 10.1548 5.22123 10.3548 5.02118C10.5549 4.82113 10.6673 4.54981 10.6673 4.2669C10.6673 3.98399 10.5549 3.71267 10.3548 3.51263C10.1548 3.31258 9.88346 3.2002 9.60055 3.2002L6.40043 3.2002ZM22.401 3.2002C22.1181 3.2002 21.8468 3.31258 21.6468 3.51263C21.4467 3.71267 21.3343 3.98399 21.3343 4.2669C21.3343 4.54981 21.4467 4.82113 21.6468 5.02118C21.8468 5.22123 22.1181 5.33361 22.401 5.33361H25.6012C26.2039 5.33361 26.6679 5.79763 26.6679 6.40032V9.60044C26.6679 9.88335 26.7803 10.1547 26.9803 10.3547C27.1804 10.5548 27.4517 10.6671 27.7346 10.6671C28.0175 10.6671 28.2888 10.5548 28.4889 10.3547C28.6889 10.1547 28.8013 9.88335 28.8013 9.60044V6.40032C28.8013 4.64558 27.3559 3.2002 25.6012 3.2002L22.401 3.2002ZM10.6502 11.7189C10.3676 11.7234 10.0984 11.8398 9.90164 12.0426C9.70484 12.2454 9.59656 12.518 9.60055 12.8006V14.934C9.60055 15.2169 9.71293 15.4882 9.91298 15.6883C10.113 15.8883 10.3843 16.0007 10.6673 16.0007C10.9502 16.0007 11.2215 15.8883 11.4215 15.6883C11.6216 15.4882 11.734 15.2169 11.734 14.934V12.8006C11.736 12.6578 11.7093 12.516 11.6555 12.3838C11.6018 12.2515 11.522 12.1313 11.4209 12.0305C11.3198 11.9296 11.1995 11.85 11.0671 11.7965C10.9348 11.743 10.793 11.7166 10.6502 11.7189ZM15.9837 11.7189C15.7012 11.7234 15.432 11.8398 15.2352 12.0426C15.0384 12.2454 14.9301 12.518 14.9341 12.8006V17.0674C14.6512 17.0674 14.3799 17.1798 14.1798 17.3798C13.9798 17.5799 13.8674 17.8512 13.8674 18.1341C13.8674 18.417 13.9798 18.6883 14.1798 18.8884C14.3799 19.0884 14.6512 19.2008 14.9341 19.2008C16.1 19.2008 17.0675 18.2333 17.0675 17.0674V12.8006C17.0695 12.6578 17.0429 12.516 16.9891 12.3838C16.9353 12.2515 16.8555 12.1313 16.7544 12.0305C16.6534 11.9296 16.5331 11.85 16.4007 11.7965C16.2683 11.743 16.1265 11.7166 15.9837 11.7189ZM21.3173 11.7189C21.0347 11.7234 20.7655 11.8398 20.5687 12.0426C20.3719 12.2454 20.2636 12.518 20.2676 12.8006L20.2676 14.934C20.2676 15.2169 20.38 15.4882 20.5801 15.6883C20.7801 15.8883 21.0514 16.0007 21.3343 16.0007C21.6172 16.0007 21.8886 15.8883 22.0886 15.6883C22.2887 15.4882 22.401 15.2169 22.401 14.934L22.401 12.8006C22.4031 12.6578 22.3764 12.516 22.3226 12.3838C22.2688 12.2515 22.189 12.1313 22.088 12.0305C21.9869 11.9296 21.8666 11.85 21.7342 11.7965C21.6018 11.743 21.46 11.7166 21.3173 11.7189ZM19.2009 20.2505C18.9511 20.2405 18.7057 20.3187 18.5076 20.4713C17.8974 20.915 17.0494 21.3342 16.0008 21.3342C14.9522 21.3342 14.1042 20.915 13.494 20.4713C13.3809 20.3858 13.2519 20.3237 13.1145 20.2887C12.9771 20.2536 12.8341 20.2463 12.6938 20.2672C12.5536 20.2881 12.4189 20.3367 12.2977 20.4102C12.1765 20.4838 12.0711 20.5808 11.9878 20.6955C11.9045 20.8102 11.8449 20.9404 11.8124 21.0784C11.78 21.2165 11.7755 21.3596 11.799 21.4994C11.8225 21.6392 11.8737 21.773 11.9496 21.8928C12.0254 22.0126 12.1244 22.1161 12.2407 22.1972C13.0983 22.8202 14.3826 23.4676 16.0008 23.4676C17.619 23.4676 18.9033 22.8202 19.7609 22.1972C19.9462 22.0707 20.0869 21.8889 20.1629 21.6778C20.2389 21.4667 20.2465 21.2371 20.1844 21.0214C20.1224 20.8058 19.994 20.6153 19.8174 20.4768C19.6408 20.3384 19.4251 20.2592 19.2009 20.2505ZM4.24994 21.3193C3.9674 21.3238 3.69818 21.4402 3.50139 21.643C3.3046 21.8458 3.19631 22.1184 3.2003 22.4009L3.2003 25.6011C3.2003 27.3558 4.64569 28.8012 6.40043 28.8012H9.60055C9.88346 28.8012 10.1548 28.6888 10.3548 28.4888C10.5549 28.2887 10.6673 28.0174 10.6673 27.7345C10.6673 27.4516 10.5549 27.1802 10.3548 26.9802C10.1548 26.7801 9.88346 26.6678 9.60055 26.6678H6.40043C5.79774 26.6678 5.33372 26.2037 5.33372 25.6011V22.4009C5.33574 22.2582 5.30907 22.1164 5.25529 21.9841C5.20151 21.8519 5.12172 21.7317 5.02065 21.6308C4.91958 21.53 4.79928 21.4504 4.66689 21.3969C4.53451 21.3434 4.39272 21.317 4.24994 21.3193ZM27.7175 21.3193C27.435 21.3238 27.1658 21.4402 26.969 21.643C26.7722 21.8458 26.6639 22.1184 26.6679 22.4009V25.6011C26.6679 26.2037 26.2039 26.6678 25.6012 26.6678H22.401C22.1181 26.6678 21.8468 26.7801 21.6468 26.9802C21.4467 27.1802 21.3343 27.4516 21.3343 27.7345C21.3343 28.0174 21.4467 28.2887 21.6468 28.4888C21.8468 28.6888 22.1181 28.8012 22.401 28.8012H25.6012C27.3559 28.8012 28.8013 27.3558 28.8013 25.6011V22.4009C28.8033 22.2582 28.7766 22.1164 28.7229 21.9841C28.6691 21.8519 28.5893 21.7317 28.4882 21.6308C28.3872 21.53 28.2669 21.4504 28.1345 21.3969C28.0021 21.3434 27.8603 21.317 27.7175 21.3193Z" fill="currentColor"/>
  </symbol>
  <symbol viewBox="0 0 32 32" id="persons-icon">
    <path d="M9.06686 3.2002C7.5941 3.2002 6.40019 4.3941 6.40019 5.86686C6.40019 7.33962 7.5941 8.53353 9.06686 8.53353C10.5396 8.53353 11.7335 7.33962 11.7335 5.86686C11.7335 4.3941 10.5396 3.2002 9.06686 3.2002ZM24.1627 3.2002C22.7544 3.20042 21.6129 4.34197 21.6127 5.7502C21.6129 7.15843 22.7545 8.29998 24.1627 8.3002C25.5709 8.29998 26.7125 7.15843 26.7127 5.75021C26.7125 4.34198 25.5709 3.20041 24.1627 3.2002ZM8.53353 10.6669C6.76606 10.6669 5.33353 12.0994 5.33353 13.8669V16.0002H4.26686C3.67806 16.0002 3.2002 16.4781 3.2002 17.0669C3.2002 17.6557 3.67806 18.1335 4.26686 18.1335H18.1335V16.0002H12.8002V13.8669C12.8002 12.0994 11.3677 10.6669 9.60019 10.6669H8.53353ZM23.4669 10.6669C21.7122 10.6669 20.2669 12.1122 20.2669 13.8669V19.2002C20.263 19.4856 20.3736 19.7606 20.5741 19.9638C20.7746 20.167 21.0481 20.2814 21.3335 20.2814V26.8148C21.3335 27.3214 21.7456 27.7335 22.2523 27.7335C22.7355 27.7335 23.1369 27.3573 23.1689 26.8752L23.5585 19.9689C23.5745 19.7375 23.7666 19.5564 24.0002 19.5564C24.2338 19.5564 24.4259 19.7385 24.4419 19.971L24.8314 26.8773C24.8634 27.3583 25.2649 27.7335 25.7481 27.7335C26.2548 27.7335 26.6669 27.3214 26.6669 26.8148V20.2814C26.9523 20.2814 27.2258 20.167 27.4263 19.9638C27.6267 19.7606 27.7374 19.4856 27.7335 19.2002V13.8668C27.7335 12.1122 26.2882 10.6668 24.5335 10.6668L23.4669 10.6669ZM12.2669 20.2669C11.9725 20.2669 11.7335 20.5058 11.7335 20.8002V21.3335H9.60019C9.01139 21.3335 8.53353 21.8114 8.53353 22.4002V26.6669C8.53353 27.2557 9.01139 27.7335 9.60019 27.7335H17.0669C17.6557 27.7335 18.1335 27.2557 18.1335 26.6669V22.4002C18.1335 21.8114 17.6557 21.3335 17.0669 21.3335H14.9335V20.8002C14.9335 20.5058 14.6946 20.2669 14.4002 20.2669H12.2669Z" fill="currentColor"/>
  </symbol>
  <symbol viewBox="0 0 32 32" id="keys-icon">
    <path d="M13.637 3.00001C9.98256 3.00001 7 5.98257 7 9.63705C7 10.522 7.17742 11.3688 7.49074 12.1389C7.6882 12.6241 8.24155 12.8574 8.72678 12.66C9.212 12.4626 9.44541 11.9093 9.24815 11.4241C9.02293 10.8705 8.89631 10.2691 8.89631 9.63704C8.89631 7.00719 11.0072 4.8963 13.637 4.8963C15.7557 4.8963 17.517 6.27565 18.1296 8.18334C16.0555 9.03104 14.5852 11.0503 14.5852 13.4296C14.5852 15.905 16.17 18.0069 18.3778 18.7889V26.7037L19.8 28.6H20.7482L22.1704 26.7037V25.7556L21.2222 24.8074L22.1704 23.8593L21.2222 22.9111L22.1704 21.9648L21.2222 21.0148L22.1704 20.0667V18.7889C24.3782 18.0069 25.963 15.905 25.963 13.4296C25.963 10.954 24.3786 8.8535 22.1704 8.07222V11.5333C22.1704 12.581 21.3218 13.4296 20.2741 13.4296C19.2264 13.4296 18.3778 12.581 18.3778 11.5333C18.3778 11.1087 18.53 10.7287 18.7667 10.4148C19.0567 10.6266 19.4415 10.6564 19.7607 10.4917C20.0799 10.327 20.2786 9.99616 20.2741 9.63704C20.2741 5.98256 17.2915 3.00001 13.637 3.00001ZM13.9093 9.30927C13.0199 9.75964 12.2356 10.4445 11.6667 11.35C10.2815 13.5538 10.5966 16.3392 12.2574 18.1815L7.94816 25.0389L8.14075 27.3704L8.93335 27.8685L11.1185 27.0315L11.6148 26.2389L11.3222 24.9482L12.613 24.6537L12.3167 23.363L13.6074 23.0704L13.313 21.7796L14.6037 21.4833L15.5537 19.9759C15.901 20.0329 16.2502 20.0703 16.5982 20.063C14.2676 18.7678 12.6889 16.2845 12.6889 13.4296C12.6889 11.9098 13.1394 10.4964 13.9093 9.30927Z" fill="currentColor"/>
  </symbol>
  <symbol viewBox="0 0 126 28" id="ozon-logo">
    <path fill-rule="evenodd" clip-rule="evenodd" d="M15.2211 0.0770434C12.3903 -0.225951 9.53666 0.369392 7.05238 1.78124C4.5681 3.19309 2.57514 5.35214 1.34744 7.96163C0.119738 10.5711 -0.28244 13.5029 0.196186 16.3541C0.674813 19.2053 2.01075 21.8358 4.02036 23.8842C6.02998 25.9325 8.61463 27.2981 11.419 27.7933C14.2234 28.2885 17.1099 27.8889 19.6818 26.6494C22.2536 25.41 24.3846 23.3916 25.7817 20.8716C27.1788 18.3516 27.7735 15.4538 27.4841 12.5765C27.1656 9.3781 25.7722 6.38893 23.5386 4.11228C21.3051 1.83563 18.3677 0.410566 15.2211 0.0770434ZM14.7746 21.4088C13.2521 21.6163 11.7039 21.3339 10.3476 20.6012C8.99125 19.8685 7.89495 18.7223 7.21278 17.3238C6.53061 15.9253 6.29685 14.3447 6.54437 12.8042C6.79188 11.2637 7.50822 9.84072 8.59272 8.73528C9.67721 7.62984 11.0753 6.89749 12.5906 6.64117C14.1058 6.38484 15.6621 6.61742 17.0405 7.30622C18.419 7.99502 19.5504 9.10541 20.2757 10.4813C21.001 11.8573 21.2838 13.4295 21.0843 14.9772C20.875 16.6051 20.1434 18.1175 19.0027 19.2802C17.8621 20.4428 16.376 21.191 14.7746 21.4088ZM34.8532 0.630899C34.3754 0.632061 33.9038 0.74146 33.4728 0.951136C33.0418 1.16081 32.6622 1.46549 32.3616 1.843C32.0611 2.22051 31.8471 2.66135 31.7354 3.13345C31.6236 3.60555 31.6168 4.09703 31.7155 4.57213C32.0179 6.11129 33.4327 7.16296 34.9739 7.16296H43.9182L29.9989 25.8804C29.896 26.0185 29.8329 26.1831 29.8169 26.3557C29.8008 26.5282 29.8324 26.7019 29.908 26.8572C29.9837 27.0126 30.1004 27.1434 30.2451 27.2351C30.3898 27.3268 30.5568 27.3758 30.7274 27.3764H52.5611C54.1014 27.3764 55.5172 26.325 55.8196 24.7856C55.9183 24.3106 55.9115 23.8192 55.7999 23.3471C55.6882 22.8751 55.4744 22.4343 55.174 22.0567C54.8736 21.6792 54.4942 21.3744 54.0633 21.1646C53.6324 20.9548 53.161 20.8452 52.6832 20.8439H41.7853L55.6939 2.14098C55.7978 2.00146 55.8615 1.83526 55.8777 1.66104C55.8938 1.48682 55.8619 1.31146 55.7855 1.15464C55.709 0.997823 55.5911 0.865749 55.4449 0.773238C55.2987 0.680726 55.1301 0.631437 54.9579 0.630899H34.8532ZM122.099 0.706244C121.377 0.880903 120.734 1.301 120.278 1.89709C119.822 2.49317 119.58 3.22954 119.592 3.98443V14.8601L102.249 0.836315C102.113 0.726615 101.949 0.658156 101.776 0.638813C101.604 0.619471 101.429 0.650031 101.273 0.726978C101.117 0.803925 100.985 0.924133 100.893 1.07377C100.801 1.22341 100.753 1.39641 100.753 1.57285V24.0287C100.741 24.7836 100.983 25.52 101.439 26.1161C101.895 26.7122 102.538 27.1323 103.261 27.3069C103.73 27.4119 104.217 27.4084 104.685 27.2968C105.153 27.1851 105.59 26.9682 105.964 26.6619C106.339 26.3557 106.641 25.9679 106.848 25.5273C107.055 25.0866 107.162 24.6043 107.162 24.116V13.1462L124.505 27.1702C124.641 27.2799 124.804 27.3483 124.977 27.3676C125.149 27.3869 125.324 27.3564 125.48 27.2795C125.636 27.2025 125.768 27.0824 125.86 26.9328C125.952 26.7832 126 26.6103 126 26.434V3.89613C126.001 3.40788 125.893 2.92573 125.686 2.48524C125.479 2.04475 125.177 1.65715 124.802 1.35101C124.428 1.04488 123.991 0.828027 123.523 0.716434C123.055 0.604842 122.569 0.60136 122.099 0.706244ZM76.9433 6.53772C84.2789 6.53772 89.7599 10.4768 89.7599 14.0004C89.7599 17.5239 84.2789 21.463 76.9433 21.463C69.6077 21.463 64.1266 17.5239 64.1266 14.0004C64.1266 10.4768 69.6077 6.53772 76.9433 6.53772ZM76.9433 0.00592783C66.3254 0.00592783 57.718 6.2715 57.718 14.0004C57.718 21.7292 66.3254 27.9948 76.9433 27.9948C87.5612 27.9948 96.1683 21.7292 96.1683 14.0004C96.1683 6.2715 87.561 0.00592783 76.9433 0.00592783Z" fill="currentColor"/>
  </symbol>
  <symbol viewBox="0 0 169 28" id="ymaps-logo">
    <g clip-path="url(#clip0_3009_10092)">
      <path d="M11.2 0C5.01424 0 0 5.01424 0 11.2C0 14.2918 1.25272 17.0912 3.2788 19.1178C5.30544 21.1456 10.08 24.08 10.36 27.16C10.402 27.6217 10.7363 28 11.2 28C11.6637 28 11.998 27.6217 12.04 27.16C12.32 24.08 17.0945 21.1456 19.1212 19.1178C21.1473 17.0912 22.4 14.2918 22.4 11.2C22.4 5.01424 17.3857 0 11.2 0Z" fill="#343434"/>
      <path d="M11.1998 15.1208C13.3647 15.1208 15.1198 13.3657 15.1198 11.2008C15.1198 9.0358 13.3647 7.28076 11.1998 7.28076C9.03483 7.28076 7.27979 9.0358 7.27979 11.2008C7.27979 13.3657 9.03483 15.1208 11.1998 15.1208Z" fill="white"/>
      <path d="M41.9357 20.7223H44.8935V3.7334H40.5913C36.2646 3.7334 33.9913 5.95784 33.9913 9.23341C33.9913 11.849 35.2378 13.389 37.4623 14.9778L33.6001 20.7223H36.8023L41.1045 14.2934L39.6134 13.2912C37.8046 12.069 36.9245 11.1156 36.9245 9.06229C36.9245 7.2534 38.1956 6.03119 40.6156 6.03119H41.9357V20.7223ZM80.7778 19.8911V17.5201C79.8734 18.1312 78.3578 18.6689 76.94 18.6689C74.8134 18.6689 74.0067 17.6668 73.8845 15.6134H80.9001V14.0734C80.9001 9.79562 79.0179 8.18229 76.109 8.18229C72.5645 8.18229 70.8779 10.8956 70.8779 14.6112C70.8779 18.889 72.9801 20.9667 76.6956 20.9667C78.5534 20.9667 79.9223 20.4779 80.7778 19.8911ZM98.9645 20.9667C100.309 20.9667 101.262 20.7223 101.971 20.2089V17.8379C101.238 18.3511 100.358 18.6689 99.1356 18.6689C97.0579 18.6689 96.2023 17.0556 96.2023 14.5134C96.2023 11.849 97.2535 10.4801 99.1601 10.4801C100.284 10.4801 101.385 10.8712 101.971 11.2378V8.76896C101.36 8.42674 100.284 8.18229 98.8423 8.18229C95.1267 8.18229 93.1956 10.8467 93.1956 14.5868C93.1956 18.6934 95.0779 20.9667 98.9645 20.9667ZM54.1335 8.42674V13.2912H50.2468V8.42674H47.3379V20.7223H50.2468V15.5889H54.1335V20.7223H57.0423V8.42674H54.1335ZM70.1689 18.4245H68.8734V8.42674H60.3912V9.47785C60.3912 12.4845 60.1956 16.3712 59.169 18.4245H58.2646V23.5334H60.9534V20.7223H67.4801V23.5334H70.1689V18.4245ZM90.0667 20.7223H93.3668L88.6978 14.0978L92.8045 8.42674H89.8711L85.7645 14.0978V8.42674H82.8556V20.7223H85.7645V14.6845L90.0667 20.7223ZM76.0601 10.4801C77.5023 10.4801 77.9423 11.6779 77.9423 13.2179V13.4623H73.8845C73.9579 11.5067 74.6667 10.4801 76.0601 10.4801ZM65.9646 18.4245H61.8578C62.6645 16.5667 62.8846 13.2178 62.8846 11.0912V10.7245H65.9646V18.4245Z" fill="#343434"/>
      <path d="M116.982 20.7223H120.429L114.366 11.7756L120.038 3.7334H117.104L111.604 11.5556V3.7334H108.646V20.7223H111.604V12.7534L116.982 20.7223Z" fill="#343434"/>
      <path d="M130.236 12.3376C130.236 9.35541 128.721 8.23096 125.641 8.23096C123.71 8.23096 122.194 8.84207 121.314 9.35541V11.7754C122.096 11.1887 123.807 10.5532 125.299 10.5532C126.692 10.5532 127.327 11.0421 127.327 12.3621V13.0465H126.863C122.414 13.0465 120.434 14.5132 120.434 17.0065C120.434 19.4999 121.95 20.8932 124.199 20.8932C125.91 20.8932 126.643 20.3309 127.205 19.7443H127.327C127.352 20.0621 127.45 20.4776 127.547 20.7221H130.383C130.285 19.7198 130.236 18.7176 130.236 17.7154V12.3376ZM127.327 17.7888C126.961 18.3265 126.276 18.7666 125.25 18.7666C124.027 18.7666 123.416 18.0332 123.416 16.9331C123.416 15.491 124.418 14.9776 126.912 14.9776H127.327V17.7888Z" fill="#343434"/>
      <path d="M135.179 8.42658H132.49V24.2665H135.399V19.2799C136.132 20.38 137.207 20.9666 138.454 20.9666C141.29 20.9666 143.245 18.6933 143.245 14.5621C143.245 10.4555 141.339 8.18213 138.601 8.18213C137.232 8.18213 136.107 8.81769 135.325 10.0155L135.179 8.42658ZM137.721 18.6688C136.181 18.6688 135.399 17.4222 135.399 14.5866C135.399 11.7266 136.23 10.4799 137.867 10.4799C139.456 10.4799 140.238 11.7266 140.238 14.5621C140.238 17.4222 139.407 18.6688 137.721 18.6688Z" fill="#343434"/>
      <path d="M153.384 10.7245V8.42676H143.63V10.7245H147.052V20.7223H149.961V10.7245H153.384Z" fill="#343434"/>
      <path d="M155.019 8.42676V20.7223H159.444C162.305 20.7223 164.333 19.2557 164.333 16.3713C164.333 13.6334 162.524 12.1912 159.493 12.1912H157.928V8.42676H155.019ZM165.408 8.42676V20.7223H168.318V8.42676H165.408ZM159.272 18.4245H157.928V14.489H159.346C160.592 14.489 161.326 15.0512 161.326 16.469C161.326 17.8868 160.52 18.4245 159.272 18.4245Z" fill="#343434"/>
    </g>
    <defs>
      <clipPath id="clip0_3009_10092">
        <rect width="168.42" height="28" fill="white"/>
      </clipPath>
    </defs>
  </symbol>
  <symbol viewBox="0 0 24 23" id="star-icon">
	<path d="M8.47665 4.24277C10.0394 1.41516 10.8221 0 11.9994 0C13.1768 0 13.9595 1.4138 15.5235 4.24277C15.8689 4.86782 16.1689 5.6471 16.7569 6.07462C17.3169 6.48321 18.0983 6.52379 18.7596 6.64556C21.9011 7.22596 23.4718 7.51549 23.8824 8.61677C23.9127 8.69794 23.938 8.78002 23.9584 8.863C24.2358 10.0089 23.1158 11.002 20.8704 13.3452C20.1677 14.0772 19.849 14.4249 19.7077 14.8997C19.5783 15.3394 19.641 15.8157 19.7663 16.7681C20.197 20.0422 20.409 21.8578 19.4863 22.5992C17.8329 23.9251 15.1662 21.5954 13.6741 20.8959C12.8501 20.5103 12.4394 20.2938 11.9994 20.2938C11.5594 20.2938 11.1487 20.5103 10.3247 20.8959C8.83133 21.5954 6.16591 23.9264 4.51386 22.5979C3.58983 21.8578 3.80984 20.0422 4.24052 16.7681C4.36586 15.8157 4.42719 15.3394 4.29786 14.8997C4.15785 14.4249 3.83784 14.0785 3.13515 13.3439C0.889754 11.0033 -0.236947 10.0089 0.041728 8.863C0.0603953 8.77912 0.0852849 8.69704 0.116397 8.61677C0.527076 7.51549 2.09779 7.22596 5.23922 6.64556C5.90057 6.52379 6.68326 6.48321 7.24194 6.07462C7.82996 5.6471 8.12997 4.86646 8.47665 4.24277Z" fill="currentColor"/>
  </symbol>
  <symbol viewBox="0 0 12 11" id="star-icon">
	<path d="M4.23832 2.02915C5.01968 0.676814 5.41103 0 5.99971 0C6.5884 0 6.97974 0.676167 7.76176 2.02915C7.93444 2.32809 8.08444 2.70079 8.37845 2.90525C8.65846 3.10066 9.04914 3.12008 9.37981 3.17831C10.9505 3.45589 11.7359 3.59436 11.9412 4.12106C11.9563 4.15988 11.969 4.19914 11.9792 4.23882C12.1179 4.78688 11.5579 5.26181 10.4352 6.3825C10.0838 6.73256 9.9245 6.89885 9.85383 7.12596C9.78916 7.33625 9.82049 7.56401 9.88316 8.01954C10.0985 9.5854 10.2045 10.4537 9.74316 10.8083C8.91646 11.4424 7.58309 10.3282 6.83707 9.99369C6.42506 9.80928 6.21972 9.70575 5.99971 9.70575C5.7797 9.70575 5.57436 9.80928 5.16235 9.99369C4.41566 10.3282 3.08296 11.4431 2.25693 10.8077C1.79492 10.4537 1.90492 9.5854 2.12026 8.01954C2.18293 7.56401 2.2136 7.33625 2.14893 7.12596C2.07893 6.89885 1.91892 6.7332 1.56758 6.38185C0.444877 5.26246 -0.118474 4.78688 0.020864 4.23882C0.0301976 4.19871 0.0426424 4.15945 0.0581985 4.12106C0.263538 3.59436 1.04889 3.45589 2.61961 3.17831C2.95029 3.12008 3.34163 3.10066 3.62097 2.90525C3.91498 2.70079 4.06499 2.32744 4.23832 2.02915Z" fill="currentColor"/>
  </symbol>
  <symbol viewBox="0 0 12 11" id="message-icon">
	<path d="M0 5.15638C0 1.03128 0.6664 0 4.6664 0H7.3336C11.3336 0 12 1.03128 12 5.15638C12 9.16928 11.3336 9.62551 7.3336 9.62551H3.3336C2.872 10.3301 2.1192 11 1.3336 11C0 11 0 7.21893 0 5.15638ZM3.3336 5.50041C3.51045 5.50041 3.68005 5.42796 3.8051 5.299C3.93015 5.17004 4.0004 4.99513 4.0004 4.81276C4.0004 4.63038 3.93015 4.45547 3.8051 4.32651C3.68005 4.19755 3.51045 4.1251 3.3336 4.1251C3.15675 4.1251 2.98715 4.19755 2.8621 4.32651C2.73705 4.45547 2.6668 4.63038 2.6668 4.81276C2.6668 4.99513 2.73705 5.17004 2.8621 5.299C2.98715 5.42796 3.15675 5.50041 3.3336 5.50041ZM6.6664 4.81235C6.6664 4.63008 6.59619 4.45528 6.47122 4.32639C6.34624 4.19751 6.17674 4.1251 6 4.1251C5.82326 4.1251 5.65376 4.19751 5.52878 4.32639C5.40381 4.45528 5.3336 4.63008 5.3336 4.81235C5.3336 4.99461 5.40381 5.16942 5.52878 5.2983C5.65376 5.42718 5.82326 5.49959 6 5.49959C6.17674 5.49959 6.34624 5.42718 6.47122 5.2983C6.59619 5.16942 6.6664 4.99461 6.6664 4.81235ZM8.6664 5.50041C8.84325 5.50041 9.01285 5.42796 9.1379 5.299C9.26295 5.17004 9.3332 4.99513 9.3332 4.81276C9.3332 4.63038 9.26295 4.45547 9.1379 4.32651C9.01285 4.19755 8.84325 4.1251 8.6664 4.1251C8.48955 4.1251 8.31995 4.19755 8.1949 4.32651C8.06985 4.45547 7.9996 4.63038 7.9996 4.81276C7.9996 4.99513 8.06985 5.17004 8.1949 5.299C8.31995 5.42796 8.48955 5.50041 8.6664 5.50041Z" fill="currentColor"/>
  </symbol>
  <symbol viewBox="0 0 16 16" id="flame-icon">
	<path d="M8.54545 1C8.54545 1 5.81818 3.15415 5.27273 7.46171C4.18182 6.92334 4.18182 4.23086 4.18182 4.23086C4.18182 4.23086 2 6.19211 2 9.616C2 14.4678 6.36364 15 6.36364 15C5.74891 13.6001 5.81818 11.7694 8 10.1537C10.1818 11.7688 10.5767 13.6001 9.63636 15C12.2131 14.6769 14 12.1743 14 9.616C14 5.30902 11.2727 3.69314 11.2727 3.69314C11.2727 3.69314 11.2727 5.30857 10.1818 5.30857C8.54545 5.30857 8.54545 1 8.54545 1Z" fill="currentColor"/>
  </symbol>


</svg>