<svg xmlns="http://www.w3.org/2000/svg" width="116" height="32" fill="none">
                        <path d="M31.261 23.866h-6.686a8.568 8.568 0 0 0-17.135 0H.754a15.254 15.254 0 0 1 30.507 0Z" fill="#6969FF"></path>
                        <path d="M38.889 10.065H51.32v13.801h-2.925V12.624h-6.603v11.242H38.89V10.065Zm17.573 6.63c.019.957-.051 1.914-.21 2.858-.139.665-.347 1.123-.626 1.375a1.697 1.697 0 0 1-1.158.376h-.487v2.562h.945c.975 0 1.775-.209 2.399-.627.624-.418 1.095-1.14 1.414-2.169.315-1.035.473-2.46.473-4.273v-4.179h5.31V23.86h2.912V10.069H56.462v6.626Zm27.515 4.636h.593v2.535h-1.535c-.988 0-1.662-.216-2.021-.648a2.44 2.44 0 0 1-.512-1.565 5.983 5.983 0 0 1-1.402 1.484c-.793.593-1.844.89-3.155.89a7.02 7.02 0 0 1-2.669-.472 3.957 3.957 0 0 1-1.805-1.388 3.676 3.676 0 0 1-.648-2.183c0-1.42.504-2.511 1.511-3.275 1.007-.763 2.47-1.145 4.388-1.145h3.48v-.835a2.237 2.237 0 0 0-.797-1.82c-.53-.44-1.272-.66-2.223-.66a3.726 3.726 0 0 0-2.117.55 2.184 2.184 0 0 0-.984 1.463h-2.852c.07-.848.393-1.656.93-2.317a5.224 5.224 0 0 1 2.101-1.492 7.985 7.985 0 0 1 3.06-.539c1.832 0 3.251.427 4.258 1.279 1.007.853 1.509 2.094 1.505 3.724v5.524c0 .343.07.577.209.702.198.144.441.211.685.188Zm-3.761-3.61h-3.623c-.899 0-1.59.17-2.076.512-.484.341-.727.862-.729 1.563a1.736 1.736 0 0 0 .688 1.414c.46.37 1.082.554 1.88.554a4.272 4.272 0 0 0 2.063-.46 3.344 3.344 0 0 0 1.32-1.253c.323-.561.486-1.199.473-1.845l.004-.485Zm10.03 1.912v-9.568h-2.842v13.801h2.534l7.466-9.597v9.597h2.83v-13.79h-2.56l-7.428 9.557Zm3.529-11.02c1.33 0 2.368-.329 3.113-.985.745-.656 1.124-1.595 1.137-2.816h-2.238a2.168 2.168 0 0 1-.458 1.462c-.307.362-.819.54-1.537.54-.72 0-1.2-.178-1.497-.54a2.221 2.221 0 0 1-.436-1.462h-2.244c.034 1.221.407 2.16 1.117 2.816.71.656 1.722.984 3.032.984h.01Zm9.194 1.462v2.56h4.691v11.242h2.911V12.635h4.691v-2.57l-12.293.01Z" fill="#020202"></path></svg>