<svg width="150" height="58" viewBox="0 0 150 58" fill="none" xmlns="http://www.w3.org/2000/svg">
<path fill-rule="evenodd" clip-rule="evenodd" d="M5.47278 26.3169C2.11278 24.1253 0 20.637 0 16.8977C0.000180142 10.8232 5.17364 5.99749 11.582 5.33561V1.50307C11.582 0.673203 12.2553 0 13.0853 0C13.9151 0.000210812 14.5875 0.673351 14.5875 1.50307V5.33454C21.0006 5.99228 26.1794 10.8199 26.1796 16.8977C26.1796 20.6374 24.0663 24.1253 20.7057 26.3169C23.2634 31.9884 25.4117 37.3727 25.6771 43.1853C25.7883 45.6241 24.8905 47.9602 23.1741 49.7567C21.3598 51.6554 18.8137 52.7418 16.1834 52.7418H14.5875V56.4969C14.5875 57.275 13.9963 57.9158 13.2384 57.9927L13.0853 58C12.2553 58 11.582 57.3268 11.582 56.4969V52.7418H9.99619C7.36616 52.7418 4.82071 51.6552 3.00652 49.7567C1.28987 47.9602 0.391228 45.6241 0.502485 43.1853C0.767791 37.3729 2.9152 31.9882 5.47278 26.3169ZM23.4311 16.8977C23.4311 19.8834 21.5336 22.845 18.3076 24.5421L18.0559 24.6743L17.159 25.1484L17.6971 26.3284L18.7052 28.5668C20.984 33.7175 22.7073 38.3927 22.9318 43.3101C23.0079 44.9777 22.3969 46.5911 21.1862 47.8581C19.8908 49.2135 18.0653 49.9937 16.1834 49.9937H14.5875V8.0982C19.6838 8.73103 23.4309 12.5447 23.4311 16.8977ZM4.99337 47.8581C6.28848 49.2136 8.11417 49.9937 9.99619 49.9937H11.582V8.09948C6.4908 8.73617 2.74864 12.5476 2.74845 16.8977C2.74845 19.8833 4.64726 22.845 7.87296 24.5421L9.02164 25.1474L8.59993 26.0704L8.48244 26.3284C5.71839 32.3867 3.50541 37.6904 3.24884 43.3101C3.17273 44.9776 3.78251 46.5911 4.99337 47.8581Z" fill="#343434"/>
<path d="M42.5311 25.729V3.52098H45.8612V13.4156H49.0656L55.8513 3.52098H59.6526L51.9558 14.4522L59.684 25.729H55.7885L49.3169 16.4626H45.8612V25.729H42.5311Z" fill="#343434"/>
<path d="M72.0499 25.9803C69.767 25.9803 67.8298 25.4987 66.238 24.5354C64.6673 23.5511 63.4735 22.2004 62.6567 20.4833C61.8399 18.7661 61.4315 16.8186 61.4315 14.6407C61.4315 12.4419 61.8399 10.4839 62.6567 8.76673C63.4735 7.04956 64.6777 5.70933 66.2694 4.74604C67.8612 3.76181 69.7985 3.26969 72.0813 3.26969C74.3851 3.26969 76.3224 3.75134 77.8932 4.71463C79.4639 5.67792 80.6577 7.01815 81.4745 8.73532C82.2913 10.4525 82.6997 12.4105 82.6997 14.6093C82.6997 16.7872 82.2913 18.7347 81.4745 20.4519C80.6577 22.169 79.4535 23.5197 77.8618 24.504C76.291 25.4882 74.3537 25.9803 72.0499 25.9803ZM72.0813 22.9334C73.7568 22.9334 75.1286 22.546 76.1967 21.7711C77.2649 20.9963 78.0502 19.9807 78.5529 18.7242C79.0555 17.4678 79.3069 16.1066 79.3069 14.6407C79.3069 13.5308 79.1603 12.4733 78.867 11.4681C78.5948 10.463 78.1654 9.57296 77.579 8.79814C76.9926 8.02332 76.2386 7.41603 75.3171 6.97626C74.3956 6.5365 73.317 6.31662 72.0813 6.31662C70.4268 6.31662 69.055 6.70403 67.9659 7.47885C66.8978 8.25367 66.1019 9.26931 65.5783 10.5258C65.0547 11.7822 64.7929 13.1539 64.7929 14.6407C64.7929 16.1066 65.0442 17.4678 65.5469 18.7242C66.0705 19.9807 66.8663 20.9963 67.9345 21.7711C69.0235 22.546 70.4058 22.9334 72.0813 22.9334Z" fill="#343434"/>
<path d="M86.6785 25.729V3.52098H90.5425L101.695 20.8602V3.52098H104.994V25.729H101.224L90.0085 8.48402V25.729H86.6785Z" fill="#343434"/>
<path d="M107.822 25.729L116.21 3.52098H120.514L128.87 25.729H125.289L123.655 21.2686H113.037L111.403 25.729H107.822ZM114.136 18.2845H122.556L118.346 6.69356L114.136 18.2845Z" fill="#343434"/>
<path d="M131.685 25.729V3.52098H135.549L146.701 20.8602V3.52098H150V25.729H146.23L135.015 8.48402V25.729H131.685Z" fill="#343434"/>
<path d="M46.4818 42.1809C45.7837 42.1809 45.1728 42.0412 44.6492 41.762C44.1256 41.4741 43.7198 41.0684 43.4319 40.5448C43.1439 40.0126 42.9999 39.3843 42.9999 38.6601C42.9999 37.9185 43.1439 37.2815 43.4319 36.7493C43.7286 36.2083 44.1344 35.7938 44.6492 35.5059C45.1728 35.2179 45.7793 35.074 46.4687 35.074C47.1668 35.074 47.7733 35.2223 48.2882 35.519C48.803 35.8156 49.2045 36.2301 49.4924 36.7623C49.7804 37.2946 49.9244 37.9316 49.9244 38.6732C49.9244 39.3974 49.7804 40.0257 49.4924 40.5579C49.2132 41.0814 48.8161 41.4828 48.3013 41.762C47.7951 42.0412 47.1886 42.1809 46.4818 42.1809ZM46.4556 40.5056C46.8658 40.5056 47.1886 40.4183 47.4243 40.2438C47.6686 40.0693 47.8431 39.8424 47.9478 39.5632C48.0613 39.284 48.118 38.9873 48.118 38.6732C48.118 38.3591 48.0613 38.0581 47.9478 37.7701C47.8431 37.4735 47.6686 37.2335 47.4243 37.0503C47.1886 36.8583 46.8658 36.7623 46.4556 36.7623C46.0629 36.7623 45.7444 36.8583 45.5001 37.0503C45.2557 37.2335 45.0768 37.4691 44.9634 37.757C44.8587 38.045 44.8063 38.3504 44.8063 38.6732C44.8063 38.9873 44.8587 39.284 44.9634 39.5632C45.0768 39.8424 45.2557 40.0693 45.5001 40.2438C45.7444 40.4183 46.0629 40.5056 46.4556 40.5056Z" fill="#343434"/>
<path d="M54.7759 44.6153V42.1547C54.2349 42.1285 53.7374 42.0412 53.2837 41.8929C52.8299 41.7446 52.4328 41.5264 52.0925 41.2385C51.7609 40.9506 51.5035 40.5928 51.3202 40.1653C51.1369 39.729 51.0453 39.2186 51.0453 38.634C51.0453 37.8487 51.2024 37.1943 51.5165 36.6707C51.8394 36.1472 52.2801 35.7546 52.8386 35.4928C53.4058 35.231 54.0516 35.1001 54.7759 35.1001V32.9799H56.6085V35.1001C57.3677 35.1001 58.0265 35.2354 58.585 35.5059C59.1435 35.7676 59.5755 36.1647 59.8809 36.6969C60.1951 37.2204 60.3521 37.8836 60.3521 38.6863C60.3521 39.4541 60.1907 40.0911 59.8678 40.5972C59.5449 41.0945 59.0999 41.4697 58.5327 41.7228C57.9742 41.9758 57.3328 42.1198 56.6085 42.1547V44.6153H54.7759ZM54.7759 40.5448V36.7362C54.1476 36.7362 53.672 36.915 53.3491 37.2728C53.035 37.6218 52.8779 38.0755 52.8779 38.634C52.8779 39.0091 52.9477 39.3407 53.0873 39.6287C53.2357 39.9166 53.4495 40.1391 53.7287 40.2962C54.0167 40.4532 54.3658 40.5361 54.7759 40.5448ZM56.6085 40.5448C57.0361 40.5361 57.3895 40.4532 57.6687 40.2962C57.948 40.1391 58.1574 39.9166 58.2971 39.6287C58.4454 39.3407 58.5196 39.0091 58.5196 38.634C58.5196 38.0755 58.3581 37.6218 58.0353 37.2728C57.7211 36.915 57.2455 36.7362 56.6085 36.7362V40.5448Z" fill="#343434"/>
<path d="M61.7454 42.0892V35.1918H63.578V39.2753C63.639 39.188 63.7045 39.1008 63.7743 39.0135C63.8441 38.9175 63.9052 38.8346 63.9576 38.7648L66.7195 35.1918H68.3165V42.0892H66.4708V38.0843C66.4097 38.1802 66.3399 38.2762 66.2614 38.3722C66.1916 38.4594 66.1217 38.5467 66.0519 38.634L63.3947 42.0892H61.7454Z" fill="#343434"/>
<path d="M75.3104 44.0263V42.0892H70.0221V35.1918H71.8547V40.4532H74.4072V35.1918H76.2529V40.4532H77.143V44.0263H75.3104Z" fill="#343434"/>
<path d="M78.2733 42.0892V35.1918H80.1058V39.2753C80.1669 39.188 80.2324 39.1008 80.3022 39.0135C80.372 38.9175 80.4331 38.8346 80.4854 38.7648L83.2474 35.1918H84.8443V42.0892H82.9987V38.0843C82.9376 38.1802 82.8678 38.2762 82.7892 38.3722C82.7194 38.4594 82.6496 38.5467 82.5798 38.634L79.9226 42.0892H78.2733Z" fill="#343434"/>
<path d="M88.6575 42.1809C88.3608 42.1809 88.0728 42.1416 87.7935 42.0631C87.5143 41.9758 87.2612 41.8449 87.0343 41.6704C86.8162 41.4959 86.6416 41.2778 86.5107 41.016C86.3798 40.7542 86.3144 40.4488 86.3144 40.0998C86.3144 39.6287 86.4104 39.2535 86.6024 38.9742C86.7943 38.6863 87.0518 38.4682 87.3747 38.3198C87.6975 38.1715 88.0684 38.0712 88.4873 38.0188C88.9149 37.9665 89.3556 37.9403 89.8094 37.9403H90.8042C90.8042 37.6872 90.7562 37.4647 90.6602 37.2728C90.5729 37.0721 90.4377 36.9194 90.2544 36.8147C90.0711 36.7013 89.8355 36.6446 89.5476 36.6446C89.3643 36.6446 89.1854 36.6707 89.0109 36.7231C88.8451 36.7667 88.7055 36.8321 88.592 36.9194C88.4786 37.0067 88.4044 37.1201 88.3695 37.2597H86.5107C86.5631 36.8758 86.6853 36.5486 86.8772 36.2781C87.0692 35.9989 87.3092 35.772 87.5972 35.5975C87.8852 35.423 88.1993 35.2965 88.5396 35.2179C88.8887 35.1307 89.2465 35.0871 89.613 35.0871C90.285 35.0871 90.8347 35.2136 91.2623 35.4666C91.6986 35.7197 92.0215 36.0905 92.231 36.5791C92.4491 37.0677 92.5582 37.6654 92.5582 38.3722V42.0892H90.9089L90.8827 41.2778C90.682 41.5134 90.4595 41.701 90.2151 41.8406C89.9795 41.9714 89.7308 42.0587 89.469 42.1023C89.2072 42.1547 88.9367 42.1809 88.6575 42.1809ZM89.1549 40.7281C89.469 40.7281 89.7526 40.667 90.0057 40.5448C90.2588 40.4139 90.4551 40.2438 90.5947 40.0344C90.7431 39.8163 90.8173 39.5763 90.8173 39.3145V39.1706H89.5606C89.3687 39.1706 89.1854 39.1793 89.0109 39.1967C88.8451 39.2142 88.6924 39.2491 88.5527 39.3015C88.4218 39.3451 88.3171 39.4192 88.2386 39.5239C88.1688 39.6199 88.1339 39.7508 88.1339 39.9166C88.1339 40.0998 88.1775 40.2525 88.2648 40.3747C88.3607 40.4968 88.4873 40.5885 88.6444 40.6495C88.8014 40.7019 88.9716 40.7281 89.1549 40.7281Z" fill="#343434"/>
<path d="M93.6886 42.1023V40.427C93.8893 40.427 94.0551 40.379 94.186 40.2831C94.3257 40.1784 94.4435 40.0431 94.5395 39.8773C94.6442 39.6854 94.7184 39.4498 94.762 39.1706C94.8056 38.8914 94.8362 38.6165 94.8536 38.346C94.8798 37.9708 94.8973 37.5825 94.906 37.1812C94.9234 36.7798 94.9322 36.4046 94.9322 36.0556C94.9409 35.7066 94.9453 35.4186 94.9453 35.1918H100.325V42.0892H98.5057V36.8278H96.6207C96.6207 37.107 96.6164 37.4168 96.6077 37.757C96.5989 38.0886 96.5815 38.4245 96.5553 38.7648C96.5291 39.0964 96.4942 39.4149 96.4506 39.7203C96.3982 40.0606 96.3197 40.3878 96.215 40.7019C96.119 41.0073 95.9706 41.2734 95.7699 41.5003C95.5605 41.7359 95.2943 41.8973 94.9714 41.9845C94.6486 42.0631 94.2209 42.1023 93.6886 42.1023Z" fill="#343434"/>
<path d="M102.042 42.0892V35.1918H103.888V37.4037H105.289C105.69 37.4037 106.057 37.4429 106.388 37.5215C106.729 37.5913 107.021 37.7134 107.265 37.8879C107.518 38.0537 107.715 38.2806 107.854 38.5685C107.994 38.8565 108.064 39.2186 108.064 39.6548C108.064 40.0998 107.981 40.475 107.815 40.7804C107.658 41.0858 107.44 41.3345 107.161 41.5264C106.89 41.7184 106.576 41.8624 106.218 41.9584C105.86 42.0456 105.485 42.0892 105.092 42.0892H102.042ZM103.888 40.4794H104.804C105.005 40.4794 105.193 40.4707 105.367 40.4532C105.542 40.4358 105.695 40.4009 105.825 40.3485C105.956 40.2874 106.057 40.2089 106.126 40.1129C106.205 40.0082 106.244 39.8686 106.244 39.6941C106.244 39.537 106.214 39.4105 106.153 39.3145C106.092 39.2186 106.004 39.1444 105.891 39.092C105.786 39.0397 105.664 39.0048 105.524 38.9873C105.393 38.9612 105.249 38.9481 105.092 38.9481H103.888V40.4794Z" fill="#343434"/>
<path d="M109.463 42.0892V35.1918H111.295V37.8487H113.9V35.1918H115.733V42.0892H113.9V39.4847H111.295V42.0892H109.463Z" fill="#343434"/>
<path d="M117.433 42.0892V35.1918H119.278V37.4037H120.299C120.692 37.4037 121.054 37.4386 121.386 37.5084C121.726 37.5782 122.023 37.7003 122.276 37.8748C122.529 38.0406 122.725 38.2718 122.865 38.5685C123.005 38.8565 123.074 39.2273 123.074 39.681C123.074 40.1173 122.991 40.4925 122.826 40.8066C122.669 41.112 122.45 41.3607 122.171 41.5526C121.892 41.7359 121.573 41.8711 121.216 41.9584C120.867 42.0456 120.5 42.0892 120.116 42.0892H117.433ZM119.278 40.4794H119.815C120.024 40.4794 120.212 40.4707 120.378 40.4532C120.552 40.4358 120.705 40.4009 120.836 40.3485C120.976 40.2962 121.08 40.222 121.15 40.126C121.22 40.0213 121.255 39.8861 121.255 39.7203C121.255 39.5545 121.224 39.4236 121.163 39.3276C121.102 39.2229 121.019 39.1444 120.915 39.092C120.81 39.0397 120.688 39.0048 120.548 38.9873C120.417 38.9612 120.278 38.9481 120.129 38.9481H119.278V40.4794ZM123.912 42.0892V35.1918H125.732V42.0892H123.912Z" fill="#343434"/>
<path d="M127.448 42.0892V35.1918H129.28V39.2753C129.342 39.188 129.407 39.1008 129.477 39.0135C129.547 38.9175 129.608 38.8346 129.66 38.7648L132.422 35.1918H134.019V42.0892H132.173V38.0843C132.112 38.1802 132.042 38.2762 131.964 38.3722C131.894 38.4594 131.824 38.5467 131.754 38.634L129.097 42.0892H127.448ZM130.851 34.6028C130.083 34.6028 129.481 34.4239 129.045 34.0662C128.609 33.6997 128.386 33.1456 128.377 32.404H129.896C129.904 32.7443 129.996 32.9799 130.171 33.1107C130.354 33.2416 130.585 33.3071 130.864 33.3071C131.161 33.3071 131.392 33.2416 131.558 33.1107C131.733 32.9799 131.824 32.7443 131.833 32.404H133.351C133.351 32.8926 133.251 33.3027 133.05 33.6343C132.85 33.9571 132.562 34.2014 132.186 34.3672C131.82 34.5243 131.375 34.6028 130.851 34.6028Z" fill="#343434"/>
<path d="M43.2617 55.1774V48.2799H45.0943V52.3635C45.1554 52.2762 45.2208 52.1889 45.2906 52.1017C45.3604 52.0057 45.4215 51.9228 45.4739 51.853L48.2358 48.2799H49.8328V55.1774H47.9871V51.1724C47.926 51.2684 47.8562 51.3644 47.7777 51.4604C47.7079 51.5476 47.6381 51.6349 47.5682 51.7221L44.911 55.1774H43.2617Z" fill="#343434"/>
<path d="M50.4912 55.1774V48.2799H52.3238V50.9368H54.9287V48.2799H56.7613V55.1774H54.9287V52.5729H52.3238V55.1774H50.4912Z" fill="#343434"/>
<path d="M59.0502 55.1774V49.916H56.7988V48.2799H63.1342V49.916H60.8697V55.1774H59.0502Z" fill="#343434"/>
<path d="M66.3281 55.269C65.6038 55.269 64.9886 55.1251 64.4825 54.8371C63.9763 54.5492 63.588 54.1434 63.3175 53.6199C63.047 53.0877 62.9117 52.4682 62.9117 51.7614C62.9117 51.0459 63.0513 50.422 63.3306 49.8898C63.6098 49.3488 64.0025 48.9256 64.5087 48.6202C65.0235 48.3148 65.63 48.1621 66.3281 48.1621C66.843 48.1621 67.2968 48.2494 67.6895 48.4239C68.0909 48.5984 68.4269 48.8427 68.6974 49.1568C68.9766 49.4622 69.1861 49.8243 69.3257 50.2432C69.4653 50.6533 69.5308 51.1026 69.522 51.5913C69.5133 51.7134 69.5046 51.8312 69.4959 51.9446C69.4959 52.0581 69.4828 52.1715 69.4566 52.2849H64.7312C64.7574 52.5467 64.8315 52.7866 64.9537 53.0048C65.0759 53.2229 65.2461 53.3974 65.4642 53.5283C65.6911 53.6505 65.9704 53.7115 66.302 53.7115C66.5201 53.7115 66.7208 53.6897 66.9041 53.6461C67.0873 53.5937 67.2444 53.5152 67.3753 53.4105C67.5062 53.3058 67.5978 53.1836 67.6502 53.044H69.4566C69.3432 53.5588 69.1294 53.982 68.8152 54.3136C68.5098 54.6452 68.1389 54.8895 67.7026 55.0465C67.2662 55.1949 66.8081 55.269 66.3281 55.269ZM64.7705 51.0023H67.768C67.7593 50.7667 67.6982 50.5486 67.5848 50.3479C67.48 50.1385 67.3186 49.9727 67.1004 49.8505C66.891 49.7196 66.6205 49.6542 66.2889 49.6542C65.9573 49.6542 65.678 49.7196 65.4511 49.8505C65.233 49.9814 65.0672 50.1516 64.9537 50.361C64.849 50.5616 64.7879 50.7754 64.7705 51.0023Z" fill="#343434"/>
<path d="M69.9173 57.7558V48.2799H71.6321L71.7237 49.1568C72.0029 48.7904 72.3345 48.5373 72.7185 48.3977C73.1025 48.2494 73.5083 48.1752 73.9359 48.1752C74.5903 48.1752 75.1358 48.3323 75.5721 48.6464C76.0084 48.9605 76.34 49.3881 76.5669 49.9291C76.7938 50.4613 76.9072 51.0634 76.9072 51.7352C76.9072 52.4071 76.7938 53.0135 76.5669 53.5545C76.34 54.0867 75.9953 54.5056 75.5328 54.8109C75.0703 55.1163 74.4856 55.269 73.7788 55.269C73.4559 55.269 73.1636 55.2341 72.9018 55.1643C72.6487 55.0945 72.4262 54.9985 72.2342 54.8764C72.0509 54.7542 71.8895 54.6277 71.7499 54.4968V57.7558H69.9173ZM73.4777 53.6199C73.8879 53.6199 74.2107 53.5283 74.4464 53.3451C74.682 53.1618 74.8478 52.9306 74.9438 52.6514C75.0398 52.3635 75.0878 52.0668 75.0878 51.7614C75.0878 51.4298 75.0354 51.1157 74.9307 50.819C74.826 50.5224 74.6514 50.2868 74.4071 50.1123C74.1715 49.9291 73.8486 49.8374 73.4384 49.8374C73.0719 49.8374 72.7621 49.9291 72.5091 50.1123C72.256 50.2868 72.064 50.518 71.9331 50.806C71.8022 51.0939 71.7368 51.4037 71.7368 51.7352C71.7368 52.0668 71.7979 52.3765 71.92 52.6645C72.0509 52.9524 72.2429 53.1836 72.496 53.3582C72.7578 53.5327 73.085 53.6199 73.4777 53.6199Z" fill="#343434"/>
<path d="M77.2491 55.1774V48.2799H79.0817V50.9368H81.6865V48.2799H83.5191V55.1774H81.6865V52.5729H79.0817V55.1774H77.2491Z" fill="#343434"/>
<path d="M87.3265 55.269C86.6022 55.269 85.987 55.1251 85.4808 54.8371C84.9747 54.5492 84.5864 54.1434 84.3158 53.6199C84.0453 53.0877 83.9101 52.4682 83.9101 51.7614C83.9101 51.0459 84.0497 50.422 84.3289 49.8898C84.6082 49.3488 85.0009 48.9256 85.507 48.6202C86.0219 48.3148 86.6284 48.1621 87.3265 48.1621C87.8414 48.1621 88.2951 48.2494 88.6878 48.4239C89.0892 48.5984 89.4252 48.8427 89.6957 49.1568C89.975 49.4622 90.1844 49.8243 90.3241 50.2432C90.4637 50.6533 90.5291 51.1026 90.5204 51.5913C90.5117 51.7134 90.5029 51.8312 90.4942 51.9446C90.4942 52.0581 90.4811 52.1715 90.4549 52.2849H85.7295C85.7557 52.5467 85.8299 52.7866 85.9521 53.0048C86.0742 53.2229 86.2444 53.3974 86.4626 53.5283C86.6895 53.6505 86.9687 53.7115 87.3003 53.7115C87.5185 53.7115 87.7192 53.6897 87.9024 53.6461C88.0857 53.5937 88.2428 53.5152 88.3737 53.4105C88.5046 53.3058 88.5962 53.1836 88.6486 53.044H90.4549C90.3415 53.5588 90.1277 53.982 89.8135 54.3136C89.5081 54.6452 89.1372 54.8895 88.7009 55.0465C88.2646 55.1949 87.8064 55.269 87.3265 55.269ZM85.7688 51.0023H88.7664C88.7576 50.7667 88.6966 50.5486 88.5831 50.3479C88.4784 50.1385 88.3169 49.9727 88.0988 49.8505C87.8894 49.7196 87.6188 49.6542 87.2872 49.6542C86.9556 49.6542 86.6764 49.7196 86.4495 49.8505C86.2313 49.9814 86.0655 50.1516 85.9521 50.361C85.8474 50.5616 85.7863 50.7754 85.7688 51.0023Z" fill="#343434"/>
<path d="M92.5519 55.1774V49.916H90.3004V48.2799H96.6359V49.916H94.3713V55.1774H92.5519Z" fill="#343434"/>
<path d="M96.7668 52.2064V50.5573H101.23V52.2064H96.7668Z" fill="#343434"/>
<path d="M101.974 55.1774V48.2799H104.16L106.045 51.264L107.917 48.2799H110.064V55.1774H108.244V50.7143L106.294 53.777H105.771L103.807 50.7013V55.1774H101.974Z" fill="#343434"/>
<path d="M112.82 55.269C112.523 55.269 112.235 55.2298 111.956 55.1512C111.677 55.064 111.424 54.9331 111.197 54.7586C110.979 54.5841 110.804 54.3659 110.673 54.1042C110.542 53.8424 110.477 53.537 110.477 53.188C110.477 52.7168 110.573 52.3416 110.765 52.0624C110.957 51.7745 111.214 51.5564 111.537 51.408C111.86 51.2597 112.231 51.1593 112.65 51.107C113.077 51.0546 113.518 51.0285 113.972 51.0285H114.967C114.967 50.7754 114.919 50.5529 114.823 50.361C114.735 50.1603 114.6 50.0076 114.417 49.9029C114.234 49.7894 113.998 49.7327 113.71 49.7327C113.527 49.7327 113.348 49.7589 113.173 49.8113C113.007 49.8549 112.868 49.9203 112.754 50.0076C112.641 50.0948 112.567 50.2083 112.532 50.3479H110.673C110.725 49.964 110.848 49.6367 111.04 49.3663C111.232 49.087 111.472 48.8602 111.76 48.6857C112.048 48.5112 112.362 48.3846 112.702 48.3061C113.051 48.2189 113.409 48.1752 113.775 48.1752C114.447 48.1752 114.997 48.3018 115.425 48.5548C115.861 48.8078 116.184 49.1787 116.393 49.6673C116.612 50.1559 116.721 50.7536 116.721 51.4604V55.1774H115.071L115.045 54.3659C114.844 54.6015 114.622 54.7891 114.378 54.9287C114.142 55.0596 113.893 55.1469 113.631 55.1905C113.37 55.2429 113.099 55.269 112.82 55.269ZM113.317 53.8162C113.631 53.8162 113.915 53.7552 114.168 53.633C114.421 53.5021 114.618 53.332 114.757 53.1226C114.905 52.9044 114.98 52.6645 114.98 52.4027V52.2587H113.723C113.531 52.2587 113.348 52.2675 113.173 52.2849C113.007 52.3024 112.855 52.3373 112.715 52.3896C112.584 52.4333 112.48 52.5074 112.401 52.6121C112.331 52.7081 112.296 52.839 112.296 53.0048C112.296 53.188 112.34 53.3407 112.427 53.4629C112.523 53.585 112.65 53.6766 112.807 53.7377C112.964 53.7901 113.134 53.8162 113.317 53.8162Z" fill="#343434"/>
<path d="M117.367 55.1774V48.2799H122.341V49.916H119.199V55.1774H117.367Z" fill="#343434"/>
<path d="M124.377 55.269C124.081 55.269 123.793 55.2298 123.513 55.1512C123.234 55.064 122.981 54.9331 122.754 54.7586C122.536 54.5841 122.361 54.3659 122.23 54.1042C122.1 53.8424 122.034 53.537 122.034 53.188C122.034 52.7168 122.13 52.3416 122.322 52.0624C122.514 51.7745 122.772 51.5564 123.094 51.408C123.417 51.2597 123.788 51.1593 124.207 51.107C124.635 51.0546 125.075 51.0285 125.529 51.0285H126.524C126.524 50.7754 126.476 50.5529 126.38 50.361C126.293 50.1603 126.157 50.0076 125.974 49.9029C125.791 49.7894 125.555 49.7327 125.267 49.7327C125.084 49.7327 124.905 49.7589 124.731 49.8113C124.565 49.8549 124.425 49.9203 124.312 50.0076C124.198 50.0948 124.124 50.2083 124.089 50.3479H122.23C122.283 49.964 122.405 49.6367 122.597 49.3663C122.789 49.087 123.029 48.8602 123.317 48.6857C123.605 48.5112 123.919 48.3846 124.259 48.3061C124.608 48.2189 124.966 48.1752 125.333 48.1752C126.005 48.1752 126.554 48.3018 126.982 48.5548C127.418 48.8078 127.741 49.1787 127.951 49.6673C128.169 50.1559 128.278 50.7536 128.278 51.4604V55.1774H126.629L126.602 54.3659C126.402 54.6015 126.179 54.7891 125.935 54.9287C125.699 55.0596 125.451 55.1469 125.189 55.1905C124.927 55.2429 124.656 55.269 124.377 55.269ZM124.875 53.8162C125.189 53.8162 125.472 53.7552 125.725 53.633C125.979 53.5021 126.175 53.332 126.314 53.1226C126.463 52.9044 126.537 52.6645 126.537 52.4027V52.2587H125.28C125.088 52.2587 124.905 52.2675 124.731 52.2849C124.565 52.3024 124.412 52.3373 124.272 52.3896C124.142 52.4333 124.037 52.5074 123.958 52.6121C123.889 52.7081 123.854 52.839 123.854 53.0048C123.854 53.188 123.897 53.3407 123.985 53.4629C124.081 53.585 124.207 53.6766 124.364 53.7377C124.521 53.7901 124.691 53.8162 124.875 53.8162Z" fill="#343434"/>
<path d="M131.765 55.269C131.398 55.269 131.032 55.2298 130.665 55.1512C130.298 55.0727 129.958 54.9462 129.644 54.7717C129.339 54.5884 129.085 54.3485 128.885 54.0518C128.684 53.7552 128.566 53.3887 128.531 52.9524H130.312C130.346 53.1357 130.438 53.284 130.586 53.3974C130.735 53.5108 130.914 53.5937 131.123 53.6461C131.333 53.6897 131.542 53.7115 131.751 53.7115C131.943 53.7115 132.135 53.6941 132.327 53.6592C132.519 53.6156 132.676 53.5414 132.799 53.4367C132.921 53.3233 132.982 53.1662 132.982 52.9655C132.982 52.8085 132.943 52.6863 132.864 52.599C132.786 52.5118 132.676 52.4507 132.537 52.4158C132.406 52.3809 132.244 52.3635 132.053 52.3635H130.848V51.0154H131.791C131.948 51.0154 132.087 51.0023 132.21 50.9761C132.332 50.9499 132.436 50.9107 132.524 50.8583C132.611 50.806 132.676 50.7405 132.72 50.662C132.764 50.5835 132.786 50.4875 132.786 50.3741C132.786 50.2083 132.733 50.0774 132.628 49.9814C132.532 49.8767 132.406 49.8069 132.249 49.772C132.092 49.7284 131.917 49.7066 131.725 49.7066C131.533 49.7066 131.337 49.7327 131.136 49.7851C130.944 49.8287 130.778 49.9029 130.639 50.0076C130.508 50.1123 130.425 50.2563 130.39 50.4395H128.649C128.719 49.8462 128.911 49.3881 129.225 49.0652C129.539 48.7337 129.919 48.5024 130.364 48.3716C130.809 48.232 131.267 48.1621 131.738 48.1621C132.07 48.1621 132.397 48.1927 132.72 48.2538C133.043 48.3148 133.34 48.4195 133.61 48.5679C133.889 48.7162 134.112 48.9169 134.278 49.1699C134.444 49.423 134.526 49.7371 134.526 50.1123C134.526 50.3741 134.465 50.6271 134.343 50.8714C134.23 51.107 134.055 51.2902 133.82 51.4211C134.16 51.5782 134.4 51.8007 134.54 52.0886C134.679 52.3678 134.749 52.6776 134.749 53.0179C134.749 53.4367 134.662 53.7901 134.487 54.078C134.313 54.3572 134.081 54.5884 133.793 54.7717C133.505 54.9462 133.183 55.0727 132.825 55.1512C132.476 55.2298 132.122 55.269 131.765 55.269Z" fill="#343434"/>
<path d="M135.093 55.1774V48.2799H136.925V52.3635C136.986 52.2762 137.052 52.1889 137.122 52.1017C137.191 52.0057 137.252 51.9228 137.305 51.853L140.067 48.2799H141.664V55.1774H139.818V51.1724C139.757 51.2684 139.687 51.3644 139.609 51.4604C139.539 51.5476 139.469 51.6349 139.399 51.7221L136.742 55.1774H135.093Z" fill="#343434"/>
<path d="M142.322 55.1774V48.2799H144.155V50.9368H146.76V48.2799H148.592V55.1774H146.76V52.5729H144.155V55.1774H142.322Z" fill="#343434"/>
</svg>
