<svg width="150" height="30" viewBox="0 0 150 30" fill="none" xmlns="http://www.w3.org/2000/svg">
<path d="M0.159916 29.3534V0.369141H7.56972V11.5043H11.5407L17.8043 0.369141H26.2375L17.6405 14.2472L26.1557 29.3534H17.5586L11.7045 18.341H7.56972V29.3534H0.159916Z" fill="#343434"/>
<path d="M60.9675 29.3534V0.369141H67.886L80.1266 16.9491V0.369141H87.5364V29.3534H80.8225L68.3773 13.019V29.3534H60.9675Z" fill="#343434"/>
<path d="M90.0828 29.3534L101.709 0.369141H109.242L120.746 29.3534H112.763L111.33 25.2595H99.4986L98.0248 29.3534H90.0828ZM101.832 18.5866H108.996L105.476 8.63865L101.832 18.5866Z" fill="#343434"/>
<path d="M123.294 29.3534V0.369141H130.213L142.453 16.9491V0.369141H149.863V29.3534H143.149L130.704 13.019V29.3534H123.294Z" fill="#343434"/>
<path d="M37.8997 14.9732C37.8997 16.4812 38.3022 17.6196 39.1072 18.3884C39.9106 19.1556 40.8743 19.54 41.9984 19.5416H42.0526C43.1766 19.54 44.1403 19.1556 44.9437 18.3884C45.7487 17.6196 46.1513 16.4812 46.1513 14.9732V14.707C46.1513 13.199 45.7487 12.0606 44.9437 11.2918C44.1168 10.5276 43.1441 10.1432 42.0255 10.1386C40.9069 10.1432 39.9341 10.5276 39.1072 11.2918C38.3022 12.0606 37.8997 13.199 37.8997 14.707V14.9732Z" fill="#343434"/>
<path d="M42.0869 0C45.0071 0 47.5726 0.600426 49.7833 1.80128C51.9939 3.00213 53.727 4.70789 54.9824 6.91855C56.2378 9.10192 56.8656 11.6947 56.8656 14.6968V15.0473C56.8656 18.0495 56.2378 20.6422 54.9824 22.8256C53.727 25.0362 51.9939 26.742 49.7833 27.9429C49.5939 28.0457 49.4019 28.1442 49.2074 28.2382L46.448 21.3592C46.4776 21.336 46.5069 21.3126 46.5359 21.289C46.9201 20.9768 47.2558 20.6266 47.5433 20.2384C47.919 19.7637 48.2265 19.2455 48.4656 18.6838L48.4662 18.6824C48.6363 18.3025 48.7752 17.9096 48.8826 17.5036C49.1555 16.603 49.292 15.716 49.292 14.8426C49.292 13.6691 49.0464 12.4819 48.5551 11.281C48.0911 10.0802 47.3295 9.06593 46.2651 8.24716C46.0104 8.06227 45.7366 7.89232 45.4438 7.73731C44.5205 7.24851 43.3811 7.00289 42.0255 7.00044C40.6699 7.00289 39.5304 7.24851 38.6071 7.73731C38.3143 7.89232 38.0406 8.06227 37.7858 8.24716C36.7214 9.06593 35.9598 10.0802 35.4958 11.281C35.0046 12.4819 34.7589 13.6691 34.7589 14.8426C34.7589 15.716 34.8954 16.603 35.1683 17.5036C35.2759 17.9101 35.4149 18.3035 35.5854 18.6838C35.8245 19.2455 36.1319 19.7637 36.5077 20.2384C36.7909 20.6209 37.1211 20.9665 37.4982 21.2752L37.515 21.289C37.5441 21.3126 37.5734 21.336 37.603 21.3592L34.8436 28.2382C34.649 28.1442 34.457 28.0457 34.2677 27.9429C32.057 26.742 30.324 25.0362 29.0685 22.8256C27.8131 20.6422 27.1854 18.0495 27.1854 15.0473V14.6968C27.1854 11.6947 27.8131 9.10192 29.0685 6.91855C30.324 4.70789 32.057 3.00213 34.2677 1.80128C36.4783 0.600426 39.0438 0 41.9641 0H42.0869Z" fill="#343434"/>
</svg>
